<svg version="1.2" xmlns="http://www.w3.org/2000/svg" viewBox="0 0 24 24" width="24" height="24">
	<title>facebook</title>
	<defs>
		<clipPath clipPathUnits="userSpaceOnUse" id="cp1">
			<path d="m9.1 23.69v-7.98h-2.47v-3.67h2.47v-1.58c0-4.08 1.85-5.97 5.86-5.97 0.4 0 0.95 0.04 1.47 0.1q0.14 0.01 0.28 0.03 0.15 0.02 0.29 0.05 0.14 0.02 0.29 0.05 0.14 0.03 0.28 0.06v3.33q-0.08-0.01-0.16-0.01-0.09-0.01-0.17-0.02-0.08 0-0.16 0-0.08-0.01-0.16-0.01-0.1 0-0.19 0-0.09 0-0.18 0-0.09-0.01-0.18-0.01-0.1 0-0.19 0-1.05 0-1.67 0.31-0.11 0.06-0.2 0.12-0.1 0.07-0.19 0.15-0.08 0.08-0.16 0.17-0.07 0.09-0.13 0.18-0.38 0.63-0.38 1.76v1.29h3.92l-0.38 2.11-0.29 1.56h-3.25v8.25c5.95-0.72 10.55-5.78 10.55-11.92 0-6.62-5.37-12-12-12-6.63 0-12 5.38-12 12 0 5.63 3.87 10.35 9.1 11.65z"/>
		</clipPath>
	</defs>
	<style>
		.s0 { fill: #000000 } 
	</style>
	<g clip-path="url(#cp1)">
		<path class="s0" d="m9.1 23.69v-7.98h-2.47v-3.67h2.47v-1.58c0-4.08 1.85-5.97 5.86-5.97 0.4 0 0.95 0.04 1.47 0.1q0.14 0.01 0.28 0.03 0.15 0.02 0.29 0.05 0.14 0.02 0.29 0.05 0.14 0.03 0.28 0.06v3.33q-0.08-0.01-0.16-0.01-0.09-0.01-0.17-0.02-0.08 0-0.16 0-0.08-0.01-0.16-0.01-0.1 0-0.19 0-0.09 0-0.18 0-0.09-0.01-0.18-0.01-0.1 0-0.19 0-1.05 0-1.67 0.31-0.11 0.06-0.2 0.12-0.1 0.07-0.19 0.15-0.08 0.08-0.16 0.17-0.07 0.09-0.13 0.18-0.38 0.63-0.38 1.76v1.29h3.92l-0.38 2.11-0.29 1.56h-3.25v8.25c5.95-0.72 10.55-5.78 10.55-11.92 0-6.62-5.37-12-12-12-6.63 0-12 5.38-12 12 0 5.63 3.87 10.35 9.1 11.65z"/>
		<rect width="24" height="24" id="Color Fill 1" style="fill: #ffefcc"/>
	</g>
</svg>