<svg version="1.2" xmlns="http://www.w3.org/2000/svg" viewBox="0 0 344 44" width="344" height="44">
	<title>logo</title>
	<defs>
		<clipPath clipPathUnits="userSpaceOnUse" id="cp1">
			<path d="m0.6 21.58c0-11.05 8.96-20 20-20 11.05 0 20 8.95 20 20 0 11.05-8.95 20-20 20-11.04 0-20-8.95-20-20zm23.09-4.55c1.71-1.7 1.71-4.47 0-6.17-1.7-1.71-4.47-1.71-6.17 0-1.71 1.7-1.71 4.47 0 6.17l3.08 3.09zm1.46 7.63c1.71 1.71 4.47 1.71 6.18 0 1.7-1.7 1.7-4.47 0-6.17-1.71-1.7-4.47-1.7-6.18 0l-3.08 3.09zm-1.46 7.63c1.7-1.7 1.7-4.47 0-6.17l-3.09-3.09-3.09 3.09c-1.7 1.7-1.7 4.47 0 6.17 1.71 1.71 4.47 1.71 6.18 0zm-7.64-7.63l3.09-3.09-3.09-3.09c-1.7-1.7-4.47-1.7-6.17 0-1.71 1.71-1.71 4.47 0 6.18 1.7 1.7 4.47 1.7 6.17 0z"/>
		</clipPath>
		<clipPath clipPathUnits="userSpaceOnUse" id="cp2">
			<path d="m59.6 35h-5.76l8.7-25.46h6.83l8.92 25.46h-5.79l-4.08-12.29q-0.74-2.37-1.5-5.2-0.76-2.83-1.6-6.18h1.13q-0.8 3.37-1.51 6.21-0.71 2.85-1.41 5.17zm13.26-5.91h-13.59v-4.09h13.59zm11.31 5.91h-5.13v-19.11h4.96v3.34h0.2q0.53-1.78 1.77-2.69 1.24-0.9 2.85-0.9 0.39 0 0.84 0.04 0.46 0.04 0.82 0.13v4.58q-0.35-0.12-1-0.19-0.64-0.07-1.23-0.07-1.16 0-2.1 0.51-0.94 0.5-1.46 1.4-0.52 0.89-0.52 2.09zm15.4 0.38q-2.88 0-4.98-1.24-2.1-1.24-3.24-3.46-1.13-2.21-1.13-5.15 0-2.97 1.13-5.18 1.14-2.22 3.24-3.46 2.1-1.24 4.98-1.24 2.88 0 4.98 1.24 2.09 1.24 3.23 3.46 1.13 2.21 1.13 5.18 0 2.94-1.13 5.15-1.14 2.22-3.23 3.46-2.1 1.24-4.98 1.24zm0-4.04q1.36 0 2.29-0.76 0.92-0.76 1.38-2.08 0.46-1.33 0.46-2.98 0-1.7-0.46-3.01-0.46-1.32-1.38-2.07-0.93-0.75-2.29-0.75-1.37 0-2.29 0.75-0.91 0.75-1.37 2.07-0.46 1.31-0.46 3.01 0 1.65 0.46 2.98 0.46 1.32 1.37 2.08 0.92 0.76 2.29 0.76zm19.12 11.21q-2.38 0-4.16-0.6-1.77-0.61-2.88-1.67-1.11-1.06-1.54-2.41l4.41-1.23q0.24 0.53 0.74 1.03 0.5 0.51 1.34 0.83 0.84 0.33 2.07 0.33 1.97 0 3.08-0.9 1.12-0.9 1.12-2.79v-3.52h-0.39q-0.34 0.77-0.99 1.48-0.65 0.72-1.7 1.17-1.05 0.46-2.61 0.46-2.15 0-3.91-1.01-1.76-1.01-2.81-3.08-1.05-2.07-1.05-5.23 0-3.23 1.07-5.4 1.06-2.17 2.83-3.26 1.77-1.1 3.89-1.1 1.61 0 2.7 0.54 1.09 0.54 1.77 1.35 0.67 0.81 1.02 1.57h0.22v-3.22h5.04v18.96q0 2.58-1.19 4.29-1.19 1.72-3.27 2.57-2.09 0.84-4.8 0.84zm0.1-11.72q1.32 0 2.23-0.65 0.91-0.65 1.39-1.87 0.48-1.22 0.48-2.93 0-1.69-0.48-2.96-0.48-1.26-1.39-1.96-0.91-0.7-2.23-0.7-1.35 0-2.26 0.72-0.92 0.73-1.39 1.99-0.47 1.27-0.47 2.91 0 1.67 0.47 2.9 0.47 1.22 1.39 1.88 0.93 0.67 2.26 0.67zm11.12 10.94l1.18-3.86 0.63 0.15q1.03 0.27 1.83 0.15 0.81-0.12 1.29-0.65 0.49-0.53 0.59-1.48l0.14-1.03-7.18-19.16h5.45l3.22 9.92q0.58 1.88 0.95 3.76 0.36 1.88 0.84 3.93h-1.2q0.47-2.05 0.93-3.94 0.46-1.89 1.07-3.75l3.35-9.92h5.39l-8.12 21.37q-0.58 1.53-1.49 2.66-0.9 1.13-2.25 1.75-1.35 0.61-3.27 0.61-1.02 0-1.91-0.14-0.89-0.15-1.44-0.37zm24.27-6.39q-1.81 0-3.26-0.64-1.44-0.65-2.27-1.92-0.83-1.27-0.83-3.17 0-1.59 0.59-2.67 0.59-1.07 1.61-1.72 1.01-0.65 2.3-0.99 1.29-0.34 2.71-0.48 1.66-0.17 2.68-0.32 1.01-0.14 1.48-0.46 0.47-0.31 0.47-0.93v-0.09q0-0.82-0.34-1.38-0.34-0.56-1.01-0.86-0.66-0.3-1.64-0.3-0.99 0-1.72 0.3-0.74 0.3-1.2 0.79-0.46 0.5-0.68 1.11l-4.7-0.78q0.49-1.66 1.64-2.82 1.14-1.17 2.84-1.78 1.7-0.62 3.82-0.62 1.56 0 3.01 0.37 1.45 0.37 2.61 1.14 1.15 0.77 1.83 2 0.67 1.23 0.67 2.97v12.87h-4.85v-2.65h-0.17q-0.46 0.89-1.23 1.56-0.77 0.68-1.86 1.07-1.08 0.4-2.5 0.4zm1.45-3.61q1.21 0 2.13-0.48 0.91-0.48 1.43-1.3 0.51-0.82 0.51-1.83v-2.06q-0.22 0.17-0.68 0.3-0.47 0.14-1.03 0.24-0.56 0.11-1.11 0.19-0.55 0.09-0.98 0.14-0.94 0.13-1.65 0.44-0.72 0.31-1.11 0.81-0.4 0.51-0.4 1.29 0 0.74 0.38 1.24 0.38 0.51 1.02 0.76 0.64 0.26 1.49 0.26zm16.39-7.83v11.06h-5.13v-19.11h4.84l0.08 4.77h-0.3q0.75-2.39 2.28-3.7 1.53-1.31 3.95-1.31 1.99 0 3.46 0.87 1.47 0.86 2.29 2.48 0.82 1.61 0.82 3.85v12.15h-5.13v-11.26q0-1.78-0.92-2.79-0.91-1.01-2.53-1.01-1.08 0-1.93 0.47-0.84 0.47-1.31 1.36-0.47 0.89-0.47 2.17zm19.51 11.06h-5.12v-19.11h5.12zm-2.56-21.6q-1.16 0-1.98-0.77-0.82-0.77-0.82-1.86 0-1.1 0.82-1.87 0.82-0.77 1.98-0.77 1.16 0 1.99 0.77 0.83 0.76 0.83 1.87 0 1.09-0.83 1.86-0.83 0.77-1.99 0.77zm12.78 12.08l-3.49 3.93v-6.17h0.77l6.26-7.35h5.93l-8.26 9.59zm-3.01 9.52h-5.12v-25.46h5.12zm12.84 0h-6.04l-5.74-8.37 3.44-3.64zm8.69 0.38q-2.92 0-5.04-1.2-2.12-1.2-3.25-3.4-1.14-2.21-1.14-5.23 0-2.96 1.13-5.18 1.13-2.22 3.19-3.47 2.07-1.25 4.86-1.25 1.88 0 3.5 0.6 1.62 0.6 2.86 1.81 1.23 1.2 1.92 3.01 0.69 1.81 0.69 4.27v1.44h-16.05v-3.21h13.54l-2.39 0.85q0-1.49-0.46-2.59-0.45-1.1-1.35-1.71-0.9-0.6-2.23-0.6-1.31 0-2.25 0.61-0.93 0.62-1.41 1.67-0.47 1.05-0.47 2.4v2.27q0 1.66 0.55 2.79 0.56 1.13 1.56 1.69 1 0.56 2.33 0.56 0.91 0 1.64-0.25 0.73-0.26 1.26-0.76 0.52-0.51 0.79-1.24l4.65 0.87q-0.46 1.57-1.61 2.76-1.14 1.19-2.86 1.84-1.72 0.65-3.96 0.65zm8.1-19.49h11.33v3.92h-11.33zm2.63 13.97v-18.51h5.13v18.06q0 0.91 0.4 1.34 0.4 0.44 1.34 0.44 0.3 0 0.82-0.08 0.53-0.07 0.81-0.14l0.73 3.84q-0.85 0.26-1.7 0.36-0.84 0.1-1.61 0.1-2.87 0-4.39-1.4-1.53-1.4-1.53-4.01zm14.89-5.92v11.06h-5.13v-25.46h5.03v11.12h-0.42q0.76-2.39 2.29-3.7 1.53-1.31 3.95-1.31 1.99 0 3.46 0.87 1.48 0.86 2.29 2.48 0.82 1.61 0.82 3.85v12.15h-5.13v-11.26q0-1.78-0.92-2.79-0.91-1.01-2.53-1.01-1.08 0-1.93 0.47-0.84 0.47-1.31 1.36-0.47 0.89-0.47 2.17zm19.72 11.44q-1.81 0-3.26-0.64-1.44-0.65-2.27-1.92-0.83-1.27-0.83-3.17 0-1.59 0.59-2.67 0.59-1.07 1.61-1.72 1.01-0.65 2.3-0.99 1.29-0.34 2.71-0.48 1.66-0.17 2.68-0.32 1.01-0.14 1.48-0.46 0.47-0.31 0.47-0.93v-0.09q0-0.82-0.34-1.38-0.34-0.56-1.01-0.86-0.66-0.3-1.64-0.3-0.99 0-1.72 0.3-0.74 0.3-1.2 0.79-0.46 0.5-0.68 1.11l-4.7-0.78q0.49-1.66 1.64-2.82 1.14-1.17 2.84-1.78 1.7-0.62 3.82-0.62 1.56 0 3.01 0.37 1.45 0.37 2.61 1.14 1.15 0.77 1.82 2 0.68 1.23 0.68 2.97v12.87h-4.85v-2.65h-0.17q-0.47 0.89-1.23 1.56-0.77 0.68-1.86 1.07-1.08 0.4-2.5 0.4zm1.45-3.61q1.21 0 2.13-0.48 0.91-0.48 1.42-1.3 0.52-0.82 0.52-1.83v-2.06q-0.22 0.17-0.69 0.3-0.46 0.14-1.02 0.24-0.57 0.11-1.11 0.19-0.55 0.09-0.98 0.14-0.94 0.13-1.65 0.44-0.72 0.31-1.12 0.81-0.39 0.51-0.39 1.29 0 0.74 0.38 1.24 0.37 0.51 1.01 0.76 0.65 0.26 1.5 0.26zm16.39-7.83v11.06h-5.13v-19.11h4.84l0.08 4.77h-0.31q0.76-2.39 2.29-3.7 1.53-1.31 3.95-1.31 1.98 0 3.45 0.87 1.47 0.86 2.29 2.48 0.82 1.61 0.82 3.85v12.15h-5.12v-11.26q0-1.78-0.92-2.79-0.91-1.01-2.53-1.01-1.08 0-1.93 0.47-0.84 0.47-1.31 1.36-0.47 0.89-0.47 2.17zm19.72 11.44q-1.81 0-3.26-0.64-1.44-0.65-2.27-1.92-0.83-1.27-0.83-3.17 0-1.59 0.59-2.67 0.59-1.07 1.61-1.72 1.01-0.65 2.3-0.99 1.29-0.34 2.71-0.48 1.66-0.17 2.68-0.32 1.01-0.14 1.48-0.46 0.47-0.31 0.47-0.93v-0.09q0-0.82-0.34-1.38-0.34-0.56-1.01-0.86-0.66-0.3-1.64-0.3-0.99 0-1.72 0.3-0.74 0.3-1.2 0.79-0.46 0.5-0.68 1.11l-4.7-0.78q0.49-1.66 1.64-2.82 1.14-1.17 2.84-1.78 1.7-0.62 3.82-0.62 1.56 0 3.01 0.37 1.45 0.37 2.61 1.14 1.15 0.77 1.82 2 0.68 1.23 0.68 2.97v12.87h-4.85v-2.65h-0.18q-0.46 0.89-1.23 1.56-0.76 0.68-1.85 1.07-1.08 0.4-2.5 0.4zm1.45-3.61q1.21 0 2.13-0.48 0.91-0.48 1.42-1.3 0.52-0.82 0.52-1.83v-2.06q-0.23 0.17-0.69 0.3-0.46 0.14-1.02 0.24-0.57 0.11-1.11 0.19-0.55 0.09-0.98 0.14-0.94 0.13-1.66 0.44-0.71 0.31-1.11 0.81-0.39 0.51-0.39 1.29 0 0.74 0.38 1.24 0.37 0.51 1.01 0.76 0.64 0.26 1.5 0.26zm16.39 3.23h-5.13v-19.11h4.75l0.26 4.75h-0.38q0.45-1.76 1.31-2.87 0.86-1.11 2.02-1.64 1.17-0.53 2.45-0.53 2.06 0 3.33 1.31 1.26 1.31 1.86 4.04h-0.6q0.43-1.83 1.4-3.01 0.96-1.19 2.29-1.76 1.32-0.58 2.77-0.58 1.76 0 3.14 0.77 1.38 0.77 2.17 2.22 0.8 1.44 0.8 3.52v12.89h-5.13v-11.91q0-1.63-0.88-2.41-0.88-0.79-2.16-0.79-0.96 0-1.67 0.42-0.71 0.42-1.09 1.17-0.39 0.75-0.39 1.76v11.76h-4.95v-12.05q0-1.4-0.83-2.23-0.83-0.83-2.15-0.83-0.9 0-1.63 0.41-0.73 0.41-1.14 1.21-0.42 0.79-0.42 1.94z"/>
		</clipPath>
	</defs>
	<style>
		.s0 { fill: #424530 } 
	</style>
	<g id="logogram">
		<g clip-path="url(#cp1)">
			<path fill-rule="evenodd" class="s0" d="m0.6 21.58c0-11.05 8.96-20 20-20 11.05 0 20 8.95 20 20 0 11.05-8.95 20-20 20-11.04 0-20-8.95-20-20zm23.09-4.55c1.71-1.7 1.71-4.47 0-6.17-1.7-1.71-4.47-1.71-6.17 0-1.71 1.7-1.71 4.47 0 6.17l3.08 3.09zm1.46 7.63c1.71 1.71 4.47 1.71 6.18 0 1.7-1.7 1.7-4.47 0-6.17-1.71-1.7-4.47-1.7-6.18 0l-3.08 3.09zm-1.46 7.63c1.7-1.7 1.7-4.47 0-6.17l-3.09-3.09-3.09 3.09c-1.7 1.7-1.7 4.47 0 6.17 1.71 1.71 4.47 1.71 6.18 0zm-7.64-7.63l3.09-3.09-3.09-3.09c-1.7-1.7-4.47-1.7-6.17 0-1.71 1.71-1.71 4.47 0 6.18 1.7 1.7 4.47 1.7 6.17 0z"/>
			<rect width="344" height="44" id="Color Fill 2" style="fill: #ffffff"/>
		</g>
	</g>
	<g id="logotype">
		<g clip-path="url(#cp2)">
			<path class="s0" d="m59.6 35h-5.76l8.7-25.46h6.83l8.92 25.46h-5.79l-4.08-12.29q-0.74-2.37-1.5-5.2-0.76-2.83-1.6-6.18h1.13q-0.8 3.37-1.51 6.21-0.71 2.85-1.41 5.17zm13.26-5.91h-13.59v-4.09h13.59zm11.31 5.91h-5.13v-19.11h4.96v3.34h0.2q0.53-1.78 1.77-2.69 1.24-0.9 2.85-0.9 0.39 0 0.84 0.04 0.46 0.04 0.82 0.13v4.58q-0.35-0.12-1-0.19-0.64-0.07-1.23-0.07-1.16 0-2.1 0.51-0.94 0.5-1.46 1.4-0.52 0.89-0.52 2.09zm15.4 0.38q-2.88 0-4.98-1.24-2.1-1.24-3.24-3.46-1.13-2.21-1.13-5.15 0-2.97 1.13-5.18 1.14-2.22 3.24-3.46 2.1-1.24 4.98-1.24 2.88 0 4.98 1.24 2.09 1.24 3.23 3.46 1.13 2.21 1.13 5.18 0 2.94-1.13 5.15-1.14 2.22-3.23 3.46-2.1 1.24-4.98 1.24zm0-4.04q1.36 0 2.29-0.76 0.92-0.76 1.38-2.08 0.46-1.33 0.46-2.98 0-1.7-0.46-3.01-0.46-1.32-1.38-2.07-0.93-0.75-2.29-0.75-1.37 0-2.29 0.75-0.91 0.75-1.37 2.07-0.46 1.31-0.46 3.01 0 1.65 0.46 2.98 0.46 1.32 1.37 2.08 0.92 0.76 2.29 0.76zm19.12 11.21q-2.38 0-4.16-0.6-1.77-0.61-2.88-1.67-1.11-1.06-1.54-2.41l4.41-1.23q0.24 0.53 0.74 1.03 0.5 0.51 1.34 0.83 0.84 0.33 2.07 0.33 1.97 0 3.08-0.9 1.12-0.9 1.12-2.79v-3.52h-0.39q-0.34 0.77-0.99 1.48-0.65 0.72-1.7 1.17-1.05 0.46-2.61 0.46-2.15 0-3.91-1.01-1.76-1.01-2.81-3.08-1.05-2.07-1.05-5.23 0-3.23 1.07-5.4 1.06-2.17 2.83-3.26 1.77-1.1 3.89-1.1 1.61 0 2.7 0.54 1.09 0.54 1.77 1.35 0.67 0.81 1.02 1.57h0.22v-3.22h5.04v18.96q0 2.58-1.19 4.29-1.19 1.72-3.27 2.57-2.09 0.84-4.8 0.84zm0.1-11.72q1.32 0 2.23-0.65 0.91-0.65 1.39-1.87 0.48-1.22 0.48-2.93 0-1.69-0.48-2.96-0.48-1.26-1.39-1.96-0.91-0.7-2.23-0.7-1.35 0-2.26 0.72-0.92 0.73-1.39 1.99-0.47 1.27-0.47 2.91 0 1.67 0.47 2.9 0.47 1.22 1.39 1.88 0.93 0.67 2.26 0.67zm11.12 10.94l1.18-3.86 0.63 0.15q1.03 0.27 1.83 0.15 0.81-0.12 1.29-0.65 0.49-0.53 0.59-1.48l0.14-1.03-7.18-19.16h5.45l3.22 9.92q0.58 1.88 0.95 3.76 0.36 1.88 0.84 3.93h-1.2q0.47-2.05 0.93-3.94 0.46-1.89 1.07-3.75l3.35-9.92h5.39l-8.12 21.37q-0.58 1.53-1.49 2.66-0.9 1.13-2.25 1.75-1.35 0.61-3.27 0.61-1.02 0-1.91-0.14-0.89-0.15-1.44-0.37zm24.27-6.39q-1.81 0-3.26-0.64-1.44-0.65-2.27-1.92-0.83-1.27-0.83-3.17 0-1.59 0.59-2.67 0.59-1.07 1.61-1.72 1.01-0.65 2.3-0.99 1.29-0.34 2.71-0.48 1.66-0.17 2.68-0.32 1.01-0.14 1.48-0.46 0.47-0.31 0.47-0.93v-0.09q0-0.82-0.34-1.38-0.34-0.56-1.01-0.86-0.66-0.3-1.64-0.3-0.99 0-1.72 0.3-0.74 0.3-1.2 0.79-0.46 0.5-0.68 1.11l-4.7-0.78q0.49-1.66 1.64-2.82 1.14-1.17 2.84-1.78 1.7-0.62 3.82-0.62 1.56 0 3.01 0.37 1.45 0.37 2.61 1.14 1.15 0.77 1.83 2 0.67 1.23 0.67 2.97v12.87h-4.85v-2.65h-0.17q-0.46 0.89-1.23 1.56-0.77 0.68-1.86 1.07-1.08 0.4-2.5 0.4zm1.45-3.61q1.21 0 2.13-0.48 0.91-0.48 1.43-1.3 0.51-0.82 0.51-1.83v-2.06q-0.22 0.17-0.68 0.3-0.47 0.14-1.03 0.24-0.56 0.11-1.11 0.19-0.55 0.09-0.98 0.14-0.94 0.13-1.65 0.44-0.72 0.31-1.11 0.81-0.4 0.51-0.4 1.29 0 0.74 0.38 1.24 0.38 0.51 1.02 0.76 0.64 0.26 1.49 0.26zm16.39-7.83v11.06h-5.13v-19.11h4.84l0.08 4.77h-0.3q0.75-2.39 2.28-3.7 1.53-1.31 3.95-1.31 1.99 0 3.46 0.87 1.47 0.86 2.29 2.48 0.82 1.61 0.82 3.85v12.15h-5.13v-11.26q0-1.78-0.92-2.79-0.91-1.01-2.53-1.01-1.08 0-1.93 0.47-0.84 0.47-1.31 1.36-0.47 0.89-0.47 2.17zm19.51 11.06h-5.12v-19.11h5.12zm-2.56-21.6q-1.16 0-1.98-0.77-0.82-0.77-0.82-1.86 0-1.1 0.82-1.87 0.82-0.77 1.98-0.77 1.16 0 1.99 0.77 0.83 0.76 0.83 1.87 0 1.09-0.83 1.86-0.83 0.77-1.99 0.77zm12.78 12.08l-3.49 3.93v-6.17h0.77l6.26-7.35h5.93l-8.26 9.59zm-3.01 9.52h-5.12v-25.46h5.12zm12.84 0h-6.04l-5.74-8.37 3.44-3.64zm8.69 0.38q-2.92 0-5.04-1.2-2.12-1.2-3.25-3.4-1.14-2.21-1.14-5.23 0-2.96 1.13-5.18 1.13-2.22 3.19-3.47 2.07-1.25 4.86-1.25 1.88 0 3.5 0.6 1.62 0.6 2.86 1.81 1.23 1.2 1.92 3.01 0.69 1.81 0.69 4.27v1.44h-16.05v-3.21h13.54l-2.39 0.85q0-1.49-0.46-2.59-0.45-1.1-1.35-1.71-0.9-0.6-2.23-0.6-1.31 0-2.25 0.61-0.93 0.62-1.41 1.67-0.47 1.05-0.47 2.4v2.27q0 1.66 0.55 2.79 0.56 1.13 1.56 1.69 1 0.56 2.33 0.56 0.91 0 1.64-0.25 0.73-0.26 1.26-0.76 0.52-0.51 0.79-1.24l4.65 0.87q-0.46 1.57-1.61 2.76-1.14 1.19-2.86 1.84-1.72 0.65-3.96 0.65zm8.1-19.49h11.33v3.92h-11.33zm2.63 13.97v-18.51h5.13v18.06q0 0.91 0.4 1.34 0.4 0.44 1.34 0.44 0.3 0 0.82-0.08 0.53-0.07 0.81-0.14l0.73 3.84q-0.85 0.26-1.7 0.36-0.84 0.1-1.61 0.1-2.87 0-4.39-1.4-1.53-1.4-1.53-4.01zm14.89-5.92v11.06h-5.13v-25.46h5.03v11.12h-0.42q0.76-2.39 2.29-3.7 1.53-1.31 3.95-1.31 1.99 0 3.46 0.87 1.48 0.86 2.29 2.48 0.82 1.61 0.82 3.85v12.15h-5.13v-11.26q0-1.78-0.92-2.79-0.91-1.01-2.53-1.01-1.08 0-1.93 0.47-0.84 0.47-1.31 1.36-0.47 0.89-0.47 2.17zm19.72 11.44q-1.81 0-3.26-0.64-1.44-0.65-2.27-1.92-0.83-1.27-0.83-3.17 0-1.59 0.59-2.67 0.59-1.07 1.61-1.72 1.01-0.65 2.3-0.99 1.29-0.34 2.71-0.48 1.66-0.17 2.68-0.32 1.01-0.14 1.48-0.46 0.47-0.31 0.47-0.93v-0.09q0-0.82-0.34-1.38-0.34-0.56-1.01-0.86-0.66-0.3-1.64-0.3-0.99 0-1.72 0.3-0.74 0.3-1.2 0.79-0.46 0.5-0.68 1.11l-4.7-0.78q0.49-1.66 1.64-2.82 1.14-1.17 2.84-1.78 1.7-0.62 3.82-0.62 1.56 0 3.01 0.37 1.45 0.37 2.61 1.14 1.15 0.77 1.82 2 0.68 1.23 0.68 2.97v12.87h-4.85v-2.65h-0.17q-0.47 0.89-1.23 1.56-0.77 0.68-1.86 1.07-1.08 0.4-2.5 0.4zm1.45-3.61q1.21 0 2.13-0.48 0.91-0.48 1.42-1.3 0.52-0.82 0.52-1.83v-2.06q-0.22 0.17-0.69 0.3-0.46 0.14-1.02 0.24-0.57 0.11-1.11 0.19-0.55 0.09-0.98 0.14-0.94 0.13-1.65 0.44-0.72 0.31-1.12 0.81-0.39 0.51-0.39 1.29 0 0.74 0.38 1.24 0.37 0.51 1.01 0.76 0.65 0.26 1.5 0.26zm16.39-7.83v11.06h-5.13v-19.11h4.84l0.08 4.77h-0.31q0.76-2.39 2.29-3.7 1.53-1.31 3.95-1.31 1.98 0 3.45 0.87 1.47 0.86 2.29 2.48 0.82 1.61 0.82 3.85v12.15h-5.12v-11.26q0-1.78-0.92-2.79-0.91-1.01-2.53-1.01-1.08 0-1.93 0.47-0.84 0.47-1.31 1.36-0.47 0.89-0.47 2.17zm19.72 11.44q-1.81 0-3.26-0.64-1.44-0.65-2.27-1.92-0.83-1.27-0.83-3.17 0-1.59 0.59-2.67 0.59-1.07 1.61-1.72 1.01-0.65 2.3-0.99 1.29-0.34 2.71-0.48 1.66-0.17 2.68-0.32 1.01-0.14 1.48-0.46 0.47-0.31 0.47-0.93v-0.09q0-0.82-0.34-1.38-0.34-0.56-1.01-0.86-0.66-0.3-1.64-0.3-0.99 0-1.72 0.3-0.74 0.3-1.2 0.79-0.46 0.5-0.68 1.11l-4.7-0.78q0.49-1.66 1.64-2.82 1.14-1.17 2.84-1.78 1.7-0.62 3.82-0.62 1.56 0 3.01 0.37 1.45 0.37 2.61 1.14 1.15 0.77 1.82 2 0.68 1.23 0.68 2.97v12.87h-4.85v-2.65h-0.18q-0.46 0.89-1.23 1.56-0.76 0.68-1.85 1.07-1.08 0.4-2.5 0.4zm1.45-3.61q1.21 0 2.13-0.48 0.91-0.48 1.42-1.3 0.52-0.82 0.52-1.83v-2.06q-0.23 0.17-0.69 0.3-0.46 0.14-1.02 0.24-0.57 0.11-1.11 0.19-0.55 0.09-0.98 0.14-0.94 0.13-1.66 0.44-0.71 0.31-1.11 0.81-0.39 0.51-0.39 1.29 0 0.74 0.38 1.24 0.37 0.51 1.01 0.76 0.64 0.26 1.5 0.26zm16.39 3.23h-5.13v-19.11h4.75l0.26 4.75h-0.38q0.45-1.76 1.31-2.87 0.86-1.11 2.02-1.64 1.17-0.53 2.45-0.53 2.06 0 3.33 1.31 1.26 1.31 1.86 4.04h-0.6q0.43-1.83 1.4-3.01 0.96-1.19 2.29-1.76 1.32-0.58 2.77-0.58 1.76 0 3.14 0.77 1.38 0.77 2.17 2.22 0.8 1.44 0.8 3.52v12.89h-5.13v-11.91q0-1.63-0.88-2.41-0.88-0.79-2.16-0.79-0.96 0-1.67 0.42-0.71 0.42-1.09 1.17-0.39 0.75-0.39 1.76v11.76h-4.95v-12.05q0-1.4-0.83-2.23-0.83-0.83-2.15-0.83-0.9 0-1.63 0.41-0.73 0.41-1.14 1.21-0.42 0.79-0.42 1.94z"/>
			<rect width="344" height="44" id="Color Fill 1" style="fill: #ffffff"/>
		</g>
	</g>
</svg>