<svg data-logo="logo" xmlns="http://www.w3.org/2000/svg" viewBox="0 0 344 44">
        <g style="opacity: 1;" id="logogram" transform="translate(0, 1.5) rotate(0)"><path fill-rule="evenodd" clip-rule="evenodd" d="M20.6035 40.0799C31.6493 40.0799 40.6035 31.1256 40.6035 20.0799C40.6035 9.03425 31.6493 0.0799561 20.6035 0.0799561C9.55781 0.0799561 0.603516 9.03425 0.603516 20.0799C0.603516 31.1256 9.55781 40.0799 20.6035 40.0799ZM23.6905 15.5325C25.3953 13.8276 25.3953 11.0635 23.6905 9.35861C21.9856 7.65373 19.2215 7.65373 17.5166 9.35861C15.8118 11.0635 15.8118 13.8276 17.5166 15.5325L20.6035 18.6194L23.6905 15.5325ZM25.151 23.1669C26.8559 24.8718 29.62 24.8718 31.3249 23.1669C33.0297 21.462 33.0297 18.6979 31.3249 16.993C29.62 15.2882 26.8559 15.2882 25.151 16.993L22.0641 20.08L25.151 23.1669ZM23.6905 30.8013C25.3953 29.0964 25.3953 26.3323 23.6905 24.6274L20.6035 21.5405L17.5166 24.6274C15.8118 26.3323 15.8118 29.0964 17.5166 30.8013C19.2215 32.5062 21.9856 32.5062 23.6905 30.8013ZM9.88214 23.1669C8.17731 21.462 8.17731 18.6979 9.88214 16.993C11.5871 15.2882 14.3512 15.2882 16.0561 16.993L19.143 20.08L16.0561 23.1669C14.3512 24.8718 11.5871 24.8718 9.88214 23.1669Z" fill="#424530"></path></g>
        <g style="opacity: 1;" id="logotype" transform="translate(47, 1)"><path fill="#424530" d="M12.60 34L6.84 34L15.54 8.54L22.37 8.54L31.29 34L25.50 34L21.42 21.71Q20.68 19.34 19.92 16.51Q19.16 13.68 18.32 10.33L18.32 10.33L19.45 10.33Q18.65 13.70 17.94 16.54Q17.23 19.39 16.53 21.71L16.53 21.71L12.60 34ZM25.86 28.09L12.27 28.09L12.27 24.00L25.86 24.00L25.86 28.09ZM37.17 34L32.04 34L32.04 14.89L37.00 14.89L37.00 18.23L37.20 18.23Q37.73 16.45 38.97 15.54Q40.21 14.64 41.82 14.64L41.82 14.64Q42.21 14.64 42.66 14.68Q43.12 14.72 43.48 14.81L43.48 14.81L43.48 19.39Q43.13 19.27 42.48 19.20Q41.84 19.13 41.25 19.13L41.25 19.13Q40.09 19.13 39.15 19.64Q38.21 20.14 37.69 21.04Q37.17 21.93 37.17 23.13L37.17 23.13L37.17 34ZM52.57 34.38L52.57 34.38Q49.69 34.38 47.59 33.14Q45.49 31.90 44.35 29.68Q43.22 27.47 43.22 24.53L43.22 24.53Q43.22 21.56 44.35 19.35Q45.49 17.13 47.59 15.89Q49.69 14.65 52.57 14.65L52.57 14.65Q55.45 14.65 57.55 15.89Q59.64 17.13 60.78 19.35Q61.91 21.56 61.91 24.53L61.91 24.53Q61.91 27.47 60.78 29.68Q59.64 31.90 57.55 33.14Q55.45 34.38 52.57 34.38ZM52.57 30.34L52.57 30.34Q53.93 30.34 54.86 29.58Q55.78 28.82 56.24 27.50Q56.70 26.17 56.70 24.52L56.70 24.52Q56.70 22.82 56.24 21.51Q55.78 20.19 54.86 19.44Q53.93 18.69 52.57 18.69L52.57 18.69Q51.20 18.69 50.28 19.44Q49.37 20.19 48.91 21.51Q48.45 22.82 48.45 24.52L48.45 24.52Q48.45 26.17 48.91 27.50Q49.37 28.82 50.28 29.58Q51.20 30.34 52.57 30.34ZM71.69 41.55L71.69 41.55Q69.31 41.55 67.53 40.95Q65.76 40.34 64.65 39.28Q63.54 38.22 63.11 36.87L63.11 36.87L67.52 35.64Q67.76 36.17 68.26 36.67Q68.76 37.18 69.60 37.50Q70.44 37.83 71.67 37.83L71.67 37.83Q73.64 37.83 74.75 36.93Q75.87 36.03 75.87 34.14L75.87 34.14L75.87 30.62L75.48 30.62Q75.14 31.39 74.49 32.10Q73.84 32.82 72.79 33.27Q71.74 33.73 70.18 33.73L70.18 33.73Q68.03 33.73 66.27 32.72Q64.51 31.71 63.46 29.64Q62.41 27.57 62.41 24.41L62.41 24.41Q62.41 21.18 63.48 19.01Q64.54 16.84 66.31 15.75Q68.08 14.65 70.20 14.65L70.20 14.65Q71.81 14.65 72.90 15.19Q73.99 15.73 74.67 16.54Q75.34 17.35 75.69 18.11L75.69 18.11L75.91 18.11L75.91 14.89L80.95 14.89L80.95 33.85Q80.95 36.43 79.76 38.14Q78.57 39.86 76.49 40.71Q74.40 41.55 71.69 41.55ZM71.79 29.83L71.79 29.83Q73.11 29.83 74.02 29.18Q74.93 28.53 75.41 27.31Q75.89 26.09 75.89 24.38L75.89 24.38Q75.89 22.69 75.41 21.42Q74.93 20.16 74.02 19.46Q73.11 18.76 71.79 18.76L71.79 18.76Q70.44 18.76 69.53 19.48Q68.61 20.21 68.14 21.47Q67.67 22.74 67.67 24.38L67.67 24.38Q67.67 26.05 68.14 27.28Q68.61 28.50 69.53 29.16Q70.46 29.83 71.79 29.83ZM82.91 40.77L82.91 40.77L84.09 36.91L84.72 37.06Q85.75 37.33 86.55 37.21Q87.36 37.09 87.84 36.56Q88.33 36.03 88.43 35.08L88.43 35.08L88.57 34.05L81.39 14.89L86.84 14.89L90.06 24.81Q90.64 26.69 91.01 28.57Q91.37 30.45 91.85 32.50L91.85 32.50L90.65 32.50Q91.12 30.45 91.58 28.56Q92.04 26.67 92.65 24.81L92.65 24.81L96.00 14.89L101.39 14.89L93.27 36.26Q92.69 37.79 91.78 38.92Q90.88 40.05 89.53 40.67Q88.18 41.28 86.26 41.28L86.26 41.28Q85.24 41.28 84.35 41.14Q83.46 40.99 82.91 40.77ZM107.18 34.38L107.18 34.38Q105.37 34.38 103.92 33.74Q102.48 33.09 101.65 31.82Q100.82 30.55 100.82 28.65L100.82 28.65Q100.82 27.06 101.41 25.98Q102.00 24.91 103.02 24.26Q104.03 23.61 105.32 23.27Q106.61 22.93 108.03 22.79L108.03 22.79Q109.69 22.62 110.71 22.47Q111.72 22.33 112.19 22.01Q112.66 21.70 112.66 21.08L112.66 21.08L112.66 20.99Q112.66 20.17 112.32 19.61Q111.98 19.05 111.31 18.75Q110.65 18.45 109.67 18.45L109.67 18.45Q108.68 18.45 107.95 18.75Q107.21 19.05 106.75 19.54Q106.29 20.04 106.07 20.65L106.07 20.65L101.37 19.87Q101.86 18.21 103.01 17.05Q104.15 15.88 105.85 15.27Q107.55 14.65 109.67 14.65L109.67 14.65Q111.23 14.65 112.68 15.02Q114.13 15.39 115.29 16.16Q116.44 16.93 117.12 18.16Q117.79 19.39 117.79 21.13L117.79 21.13L117.79 34L112.94 34L112.94 31.35L112.77 31.35Q112.31 32.24 111.54 32.91Q110.77 33.59 109.68 33.98Q108.60 34.38 107.18 34.38ZM108.63 30.77L108.63 30.77Q109.84 30.77 110.76 30.29Q111.67 29.81 112.19 28.99Q112.70 28.17 112.70 27.16L112.70 27.16L112.70 25.10Q112.48 25.27 112.02 25.40Q111.55 25.54 110.99 25.64Q110.43 25.75 109.88 25.83Q109.33 25.92 108.90 25.97L108.90 25.97Q107.96 26.10 107.25 26.41Q106.53 26.72 106.14 27.22Q105.74 27.73 105.74 28.51L105.74 28.51Q105.74 29.25 106.12 29.75Q106.50 30.26 107.14 30.51Q107.78 30.77 108.63 30.77ZM125.02 22.94L125.02 22.94L125.02 34L119.89 34L119.89 14.89L124.73 14.89L124.81 19.66L124.51 19.66Q125.26 17.27 126.79 15.96Q128.32 14.65 130.74 14.65L130.74 14.65Q132.73 14.65 134.20 15.52Q135.67 16.38 136.49 18.00Q137.31 19.61 137.31 21.85L137.31 21.85L137.31 34L132.18 34L132.18 22.74Q132.18 20.96 131.26 19.95Q130.35 18.94 128.73 18.94L128.73 18.94Q127.65 18.94 126.80 19.41Q125.96 19.88 125.49 20.77Q125.02 21.66 125.02 22.94ZM144.53 34L139.41 34L139.41 14.89L144.53 14.89L144.53 34ZM141.97 12.40L141.97 12.40Q140.81 12.40 139.99 11.63Q139.17 10.86 139.17 9.77L139.17 9.77Q139.17 8.67 139.99 7.90Q140.81 7.13 141.97 7.13L141.97 7.13Q143.13 7.13 143.96 7.90Q144.79 8.66 144.79 9.77L144.79 9.77Q144.79 10.86 143.96 11.63Q143.13 12.40 141.97 12.40ZM154.75 24.48L151.26 28.41L151.26 22.24L152.03 22.24L158.29 14.89L164.22 14.89L155.96 24.48L154.75 24.48ZM151.74 34L146.62 34L146.62 8.54L151.74 8.54L151.74 34ZM164.58 34L158.54 34L152.80 25.63L156.24 21.99L164.58 34ZM173.27 34.38L173.27 34.38Q170.35 34.38 168.23 33.18Q166.11 31.98 164.98 29.78Q163.84 27.57 163.84 24.55L163.84 24.55Q163.84 21.59 164.97 19.37Q166.10 17.15 168.16 15.90Q170.23 14.65 173.02 14.65L173.02 14.65Q174.90 14.65 176.52 15.25Q178.14 15.85 179.38 17.06Q180.61 18.26 181.30 20.07Q181.99 21.88 181.99 24.34L181.99 24.34L181.99 25.78L165.94 25.78L165.94 22.57L179.48 22.57L177.09 23.42Q177.09 21.93 176.63 20.83Q176.18 19.73 175.28 19.12Q174.38 18.52 173.05 18.52L173.05 18.52Q171.74 18.52 170.80 19.13Q169.87 19.75 169.39 20.80Q168.92 21.85 168.92 23.20L168.92 23.20L168.92 25.47Q168.92 27.13 169.47 28.26Q170.03 29.39 171.03 29.95Q172.03 30.51 173.36 30.51L173.36 30.51Q174.27 30.51 175.00 30.26Q175.73 30.00 176.26 29.50Q176.78 28.99 177.05 28.26L177.05 28.26L181.70 29.13Q181.24 30.70 180.09 31.89Q178.95 33.08 177.23 33.73Q175.51 34.38 173.27 34.38ZM181.37 14.89L192.70 14.89L192.70 18.81L181.37 18.81L181.37 14.89ZM184.00 28.86L184.00 10.35L189.13 10.35L189.13 28.41Q189.13 29.32 189.53 29.75Q189.93 30.19 190.87 30.19L190.87 30.19Q191.17 30.19 191.69 30.11Q192.22 30.04 192.50 29.97L192.50 29.97L193.23 33.81Q192.38 34.07 191.53 34.17Q190.69 34.27 189.92 34.27L189.92 34.27Q187.05 34.27 185.53 32.87Q184.00 31.47 184.00 28.86L184.00 28.86ZM198.89 22.94L198.89 22.94L198.89 34L193.76 34L193.76 8.54L198.79 8.54L198.79 19.66L198.37 19.66Q199.13 17.27 200.66 15.96Q202.19 14.65 204.61 14.65L204.61 14.65Q206.60 14.65 208.07 15.52Q209.55 16.38 210.36 18.00Q211.18 19.61 211.18 21.85L211.18 21.85L211.18 34L206.05 34L206.05 22.74Q206.05 20.96 205.13 19.95Q204.22 18.94 202.60 18.94L202.60 18.94Q201.52 18.94 200.67 19.41Q199.83 19.88 199.36 20.77Q198.89 21.66 198.89 22.94ZM218.61 34.38L218.61 34.38Q216.80 34.38 215.35 33.74Q213.91 33.09 213.08 31.82Q212.25 30.55 212.25 28.65L212.25 28.65Q212.25 27.06 212.84 25.98Q213.43 24.91 214.45 24.26Q215.46 23.61 216.75 23.27Q218.04 22.93 219.46 22.79L219.46 22.79Q221.12 22.62 222.14 22.47Q223.15 22.33 223.62 22.01Q224.09 21.70 224.09 21.08L224.09 21.08L224.09 20.99Q224.09 20.17 223.75 19.61Q223.41 19.05 222.74 18.75Q222.08 18.45 221.10 18.45L221.10 18.45Q220.11 18.45 219.38 18.75Q218.64 19.05 218.18 19.54Q217.72 20.04 217.50 20.65L217.50 20.65L212.80 19.87Q213.29 18.21 214.44 17.05Q215.58 15.88 217.28 15.27Q218.98 14.65 221.10 14.65L221.10 14.65Q222.66 14.65 224.11 15.02Q225.56 15.39 226.72 16.16Q227.87 16.93 228.54 18.16Q229.22 19.39 229.22 21.13L229.22 21.13L229.22 34L224.37 34L224.37 31.35L224.20 31.35Q223.73 32.24 222.97 32.91Q222.20 33.59 221.11 33.98Q220.03 34.38 218.61 34.38ZM220.06 30.77L220.06 30.77Q221.27 30.77 222.19 30.29Q223.10 29.81 223.61 28.99Q224.13 28.17 224.13 27.16L224.13 27.16L224.13 25.10Q223.91 25.27 223.44 25.40Q222.98 25.54 222.42 25.64Q221.85 25.75 221.31 25.83Q220.76 25.92 220.33 25.97L220.33 25.97Q219.39 26.10 218.68 26.41Q217.96 26.72 217.56 27.22Q217.17 27.73 217.17 28.51L217.17 28.51Q217.17 29.25 217.55 29.75Q217.92 30.26 218.56 30.51Q219.21 30.77 220.06 30.77ZM236.45 22.94L236.45 22.94L236.45 34L231.32 34L231.32 14.89L236.16 14.89L236.24 19.66L235.93 19.66Q236.69 17.27 238.22 15.96Q239.75 14.65 242.17 14.65L242.17 14.65Q244.15 14.65 245.62 15.52Q247.09 16.38 247.91 18.00Q248.73 19.61 248.73 21.85L248.73 21.85L248.73 34L243.61 34L243.61 22.74Q243.61 20.96 242.69 19.95Q241.78 18.94 240.16 18.94L240.16 18.94Q239.08 18.94 238.23 19.41Q237.39 19.88 236.92 20.77Q236.45 21.66 236.45 22.94ZM256.17 34.38L256.17 34.38Q254.36 34.38 252.91 33.74Q251.47 33.09 250.64 31.82Q249.81 30.55 249.81 28.65L249.81 28.65Q249.81 27.06 250.40 25.98Q250.99 24.91 252.01 24.26Q253.02 23.61 254.31 23.27Q255.60 22.93 257.02 22.79L257.02 22.79Q258.68 22.62 259.70 22.47Q260.71 22.33 261.18 22.01Q261.65 21.70 261.65 21.08L261.65 21.08L261.65 20.99Q261.65 20.17 261.31 19.61Q260.97 19.05 260.30 18.75Q259.64 18.45 258.66 18.45L258.66 18.45Q257.67 18.45 256.94 18.75Q256.20 19.05 255.74 19.54Q255.28 20.04 255.06 20.65L255.06 20.65L250.36 19.87Q250.85 18.21 252.00 17.05Q253.14 15.88 254.84 15.27Q256.54 14.65 258.66 14.65L258.66 14.65Q260.22 14.65 261.67 15.02Q263.12 15.39 264.28 16.16Q265.43 16.93 266.10 18.16Q266.78 19.39 266.78 21.13L266.78 21.13L266.78 34L261.93 34L261.93 31.35L261.75 31.35Q261.29 32.24 260.52 32.91Q259.76 33.59 258.67 33.98Q257.59 34.38 256.17 34.38ZM257.62 30.77L257.62 30.77Q258.83 30.77 259.75 30.29Q260.66 29.81 261.17 28.99Q261.69 28.17 261.69 27.16L261.69 27.16L261.69 25.10Q261.46 25.27 261.00 25.40Q260.54 25.54 259.98 25.64Q259.41 25.75 258.87 25.83Q258.32 25.92 257.89 25.97L257.89 25.97Q256.95 26.10 256.23 26.41Q255.52 26.72 255.12 27.22Q254.73 27.73 254.73 28.51L254.73 28.51Q254.73 29.25 255.11 29.75Q255.48 30.26 256.12 30.51Q256.76 30.77 257.62 30.77ZM274.01 34L268.88 34L268.88 14.89L273.63 14.89L273.89 19.64L273.51 19.64Q273.96 17.88 274.82 16.77Q275.68 15.66 276.84 15.13Q278.01 14.60 279.29 14.60L279.29 14.60Q281.35 14.60 282.62 15.91Q283.88 17.22 284.48 19.95L284.48 19.95L283.88 19.95Q284.31 18.12 285.28 16.94Q286.24 15.75 287.57 15.18Q288.89 14.60 290.34 14.60L290.34 14.60Q292.10 14.60 293.48 15.37Q294.86 16.14 295.65 17.59Q296.45 19.03 296.45 21.11L296.45 21.11L296.45 34L291.32 34L291.32 22.09Q291.32 20.46 290.44 19.68Q289.56 18.89 288.28 18.89L288.28 18.89Q287.32 18.89 286.61 19.31Q285.90 19.73 285.52 20.48Q285.13 21.23 285.13 22.24L285.13 22.24L285.13 34L280.18 34L280.18 21.95Q280.18 20.55 279.35 19.72Q278.52 18.89 277.20 18.89L277.20 18.89Q276.30 18.89 275.57 19.30Q274.84 19.71 274.43 20.51Q274.01 21.30 274.01 22.45L274.01 22.45L274.01 34Z"></path></g>
        
      </svg>